<?xml version="1.0" encoding="UTF-8"?>
<svg width="2136px" height="1122px" viewBox="0 0 2136 1122" version="1.1" xmlns="http://www.w3.org/2000/svg" xmlns:xlink="http://www.w3.org/1999/xlink">
    <title>Artboard</title>
    <g id="Artboard" stroke="none" stroke-width="1" fill="none" fill-rule="evenodd">
        <rect id="Rectangle-Copy-15" fill="#E56161" x="-1" y="-3" width="2137" height="1125"></rect>
        <path d="M-195.390436,94.1726204 C-21.3508271,-44.6584484 96.4203544,-65.5952117 180.304733,-175.530298 C264.189112,-285.465385 71.2330102,-552.816497 336.5,-573.190689 C601.76699,-593.56488 1273.6188,-439.111616 1128.5,-248.925461 C983.381203,-58.7393057 1813.01414,-30.0395215 1391.5,76.4752395 C969.985861,182.99 1440.49812,323.981 938,323.981 C435.501877,323.981 718.645916,62.5985389 467.13918,5.86473135 C215.632443,-50.8690761 -2.30038265,345.158533 -118.281428,358.233306 C-191.179,366.451193 -232.031979,308.60591 -240.840367,184.697456 L-240.840366,184.697456 C-242.554425,160.585629 -235.01253,136.727209 -219.750794,117.981607 C-212.97418,109.658065 -204.854061,101.721736 -195.390436,94.1726204 Z" id="Path-2-Copy-7" stroke-opacity="0.270787806" stroke="#FFFFFF" stroke-width="6" opacity="0.682140262"></path>
        <path d="M-83.9345068,61.3678213 C-3.79643905,-13.0878138 85.5686568,-47.8210526 141.445574,-86.4964657 C192.512655,-121.842733 211.858299,-161.583378 247.158767,-215.466881 C321.084534,-328.308993 151.035854,-602.7297 384.810796,-623.642648 C618.585737,-644.555597 1133.39054,-419.826269 1005.5,-224.611001 C877.609461,-29.3957321 1686.03567,-66.1288759 1314.56298,43.2024665 C943.090287,152.533809 1387.05651,280 944.214113,280 C501.371718,280 752.722659,49.5424284 499.940713,-29.2752029 C247.158767,-108.092834 18.2774652,223.511919 -83.9345068,236.93243 C-149.755594,245.57479 -164.796927,212.73112 -129.058505,138.40142 C-126.6965,133.488861 -124.761685,128.382126 -123.275477,123.137749 C-116.808202,100.31669 -103.694545,79.7267137 -83.9345068,61.3678213 Z" id="Path-2-Copy-6" stroke-opacity="0.270787806" stroke="#FFFFFF" stroke-width="6" opacity="0.682140262"></path>
        <path d="M-848.390436,1186.17262 C-653.849909,1079.66073 -528.618186,989.759759 -472.695267,916.469702 C-388.810888,806.534615 -581.76699,539.183503 -316.5,518.809311 C-51.2330102,498.43512 620.618797,652.888384 475.5,843.074539 C330.381203,1033.26069 1160.01414,1061.96048 738.5,1168.47524 C316.985861,1274.99 787.498123,1415.981 285,1415.981 C-217.498123,1415.981 65.645916,1154.59854 -185.86082,1097.86473 C-437.367557,1041.13092 -655.300383,1437.15853 -771.281428,1450.23331 C-848.602125,1458.94982 -889.871587,1393.34307 -895.089814,1253.41304 L-848.390436,1186.17262 Z" id="Path-2-Copy-5" stroke-opacity="0.270787806" stroke="#FFFFFF" stroke-width="6" opacity="0.682140262"></path>
        <path d="M-884.390436,1196.17262 C-689.849909,1089.66073 -564.618186,999.759759 -508.695267,926.469702 C-424.810888,816.534615 -617.76699,549.183503 -352.5,528.809311 C-87.2330102,508.43512 584.618797,662.888384 439.5,853.074539 C294.381203,1043.26069 1124.01414,1071.96048 702.5,1178.47524 C280.985861,1284.99 751.498123,1425.981 249,1425.981 C-253.498123,1425.981 29.645916,1164.59854 -221.86082,1107.86473 C-473.367557,1051.13092 -691.300383,1447.15853 -807.281428,1460.23331 C-884.602125,1468.94982 -925.871587,1403.34307 -931.089814,1263.41304 L-884.390436,1196.17262 Z" id="Path-2-Copy-4" stroke-opacity="0.270787806" stroke="#FFFFFF" stroke-width="6" opacity="0.682140262"></path>
        <g id="Group-6-Copy" transform="translate(850.625095, -158.000000)">
            <g id="Group-5" transform="translate(795.775506, 842.973369) rotate(17.000000) translate(-795.775506, -842.973369) translate(175.275506, 151.973369)">
                <g id="Group-4" transform="translate(-0.000000, -0.000000)">
                    <g id="Group-2" transform="translate(-0.000000, -0.000000)">
                        <g id="Group-3" transform="translate(620.420049, 691.107143) rotate(-24.000000) translate(-620.420049, -691.107143) translate(193.920049, 125.271535)">
                            <path d="M118.294512,916.354895 C141.416886,883.896037 157.573728,859.928278 166.765038,844.451619 C175.38154,829.942841 182.646012,814.865245 188.558452,799.21883 C188.821398,798.522981 189.209801,797.476676 189.72366,796.079915 C193.973507,779.302169 196.327515,767.040266 196.785684,759.294206 C197.243853,751.548145 196.016763,744.757733 193.104416,738.922968 C175.429357,719.717708 160.802643,705.872005 149.224274,697.385856 C131.85672,684.656634 112.305789,680.374502 92.0788311,664.878165 C71.8518736,649.381828 62.5622845,642.782975 53.1833249,623.806676 C46.9306851,611.15581 43.7549156,592.188603 43.6560164,566.905057 L43.6560164,497.351386 C44.5231658,479.577187 43.1381728,454.977601 39.5010376,423.552628 C35.8639024,392.127655 26.206603,352.673151 10.5291395,305.189115 C8.49028683,285.237535 8.49028683,270.994901 10.5291395,262.461214 C13.5874185,249.660682 18.0893841,242.856359 26.5944869,237.947054 C50.4055757,224.202846 59.5833617,224.058171 75.1615227,225.154188 C85.5469633,225.884866 98.2035607,232.178615 113.131315,244.035437 C122.717068,253.662869 130.674571,269.838465 137.003823,292.562227 C143.333075,315.285989 149.745019,350.700672 156.239655,398.806278 C162.123868,436.628191 170.161286,461.911012 180.351907,474.654743 C190.315706,487.114824 211.10349,498.54944 242.715257,508.95859 C243.195012,509.116564 243.920253,509.352994 244.890981,509.667879 C274.113842,523.85385 294.322068,544.147393 305.515659,570.548508 C316.709251,596.949624 318.071005,644.305174 309.600921,712.61516 C318.316676,714.124937 329.544118,653.532075 339.16935,649.872232 C354.543311,644.026526 373.513472,682.714396 390.55158,710.263906 C401.910319,728.630245 415.313703,752.363946 430.761731,781.465007" id="Path" stroke="#E89595" stroke-width="4" fill="#E56161"></path>
                            <path d="M119.602913,914.353147 C61.1140651,984.454804 31.8828499,1019.85118 31.9092669,1020.54226" id="Path-2" stroke="#E89595" stroke-width="4"></path>
                            <path d="M600.947195,296.203953 L601.591727,303.429171 L433.689419,64.6769505 C422.376325,47.576728 403.075457,32.1985009 385.897813,43.3817506 L116.121783,219.01542 C111.194734,222.223103 109.647578,228.734584 112.604502,233.818528 L481.873451,868.715658 C492.241795,886.542318 515.086822,892.58176 532.899246,882.205129 C533.499932,881.855199 534.090734,881.488542 534.670958,881.105588 L798.643511,706.881032 C815.108397,696.014041 852.232826,673.080268 846.620453,651.607454 C842.87887,637.292245 811.083775,585.87079 751.235167,497.343089" id="Path-3" stroke="#E89595" stroke-width="6" fill="#E56161"></path>
                            <path d="M431.830401,116.87972 C424.656459,106.474045 410.412101,103.858856 400.014736,111.038531 C399.869165,111.139051 399.724765,111.241258 399.581563,111.345131 L354.93041,143.73327 C348.672913,148.272206 344.968521,155.537923 344.968521,163.272315 C344.968521,170.970669 341.145582,178.165641 334.768118,182.470007 L305.031908,202.539983 C299.928881,205.984189 293.701598,207.341643 287.629561,206.333433 L270.730827,203.527543 C264.126439,202.430941 257.357088,204.000885 251.907825,207.892963 L184.223512,256.235759 C179.054037,259.928001 177.609491,266.987983 180.912743,272.416605 L504.217294,803.741012 C511.479127,815.675237 527.032881,819.458254 538.957576,812.190617 C539.369022,811.939857 539.773222,811.677378 540.16968,811.403501 L779.131389,662.765462 C792.731356,654.306064 796.898609,636.423415 788.439211,622.823449 C788.191252,622.424812 787.93365,622.032255 787.666633,621.646125 L644.677441,414.871549 L644.677441,414.871549 L431.830401,116.87972 Z" id="Line" stroke="#E89595" stroke-width="4" fill="#E77F7F" stroke-linecap="square"></path>
                            <path d="M537.212532,212.263662 L696.996459,97.5963754 C725.290645,74.0830391 740.760741,57.8483547 743.406746,48.8923223 C747.375755,35.4582736 740.093274,13.0026533 717.355066,2.40992898 C702.196261,-4.65188721 656.933867,9.94776159 581.567882,46.2088754 C557.319379,56.3718025 538.785007,65.0682988 525.964767,72.2983645 C513.144526,79.5284302 493.856528,92.2940429 468.100772,110.595203 L537.212532,212.263662 Z" id="Path-7" stroke="#E78E8E" stroke-width="6" fill="#E56161"></path>
                            <path d="M555.754941,230.24094 C583.667543,211.922184 607.223477,200.398015 626.422742,195.668433 C645.622007,190.938852 661.747819,192.687748 674.800176,200.915122 C697.072328,215.622388 710.626326,228.2763 715.462171,238.876858 C719.293431,247.275285 720.089326,259.726629 717.849857,276.230889 C716.715224,284.592819 713.965929,292.653967 709.755186,299.965097 C662.13627,382.646022 634.358789,429.457743 626.422742,440.400258 C614.050779,457.45918 604.871798,463.014912 593.729157,463.014912 C589.018943,463.014912 578.240526,464.028018 564.460296,457.597245 C562.681043,456.766927 546.040548,449.589498 536.882673,435.424544 C525.943384,418.504185 527.349494,396.413976 540.345722,381.019629 L600.904114,294.614868" id="Path-9" stroke="#E78E8E" stroke-width="3" fill="#E56161"></path>
                            <path d="M762.442681,480.975227 C746.170751,510.016325 734.479753,529.075938 727.369686,538.154068 C717.339198,550.960991 710.224773,558.052501 705.514275,561.985226 C690.935742,574.156624 675.473631,566.726992 665.41135,561.985226 C655.349069,557.24346 646.908704,551.261683 640.325082,534.187087 C633.74146,517.112492 633.849542,505.302535 637.325001,489.143401 C639.641974,478.370644 649.00409,461.260835 665.41135,437.813972 C675.492258,419.766084 681.291459,409.228366 682.808955,406.200817 C685.085199,401.659495 701.243945,356.991325 712.723623,338.082711 C715.224099,333.964083 717.426435,330.327025 719.089054,327.515448 C720.15643,325.710461 728.09699,306.89888 730.805083,299.647954 C730.92345,299.331025 745.825266,276.884392 771.041115,298.40904 C796.256964,319.933687 792.384966,330.344718 798.639822,351.496523 C802.809726,365.597727 802.809726,383.832492 798.639822,406.200817 L762.442681,480.975227 Z" id="Path-11" stroke="#E89595" stroke-width="4" fill="#E56161"></path>
                            <path d="M812.930133,438.376863 L813.905655,438.568901 L814.446138,438.685264 L815.019305,438.817274 L815.623308,438.966492 L816.256299,439.13448 L816.916429,439.322802 C817.02861,439.35597 817.141845,439.39005 817.256095,439.425075 L817.953471,439.646825 L818.673367,439.892813 C827.439848,442.99635 840.671524,451.672822 843.998752,478.070166 C844.097074,478.85023 844.196827,479.621255 844.297864,480.383567 L844.604683,482.644695 L844.918332,484.855508 L845.237937,487.017964 L845.562622,489.134021 L845.891511,491.205637 L846.22373,493.234771 L846.558402,495.223379 L846.894652,497.173421 L847.400072,500.030455 L848.237928,504.627083 L849.692793,512.468343 L850.300342,515.812967 L850.59182,517.460227 L850.873934,519.093395 L851.145807,520.71443 L851.406564,522.32529 C851.449049,522.593027 851.491034,522.860423 851.532501,523.127516 L851.774944,524.726785 L852.004082,526.320774 C852.041115,526.586108 852.077556,526.851303 852.113389,527.1164 L852.320929,528.706141 L852.512977,530.295497 C852.469987,538.46267 851.614557,546.441251 849.946685,554.23124 C848.382173,561.538479 843.848073,568.393669 840.005068,579.398615 C835.699577,591.727949 832.333566,605.477409 825.625912,611.720538 C825.147941,611.860919 817.932876,620.026736 802.111894,615.614085 C786.290911,611.201433 775.301576,597.606559 771.508488,585.383444 C768.463968,571.474067 769.312326,558.84382 774.053559,547.492704 C781.16541,530.466029 783.343579,515.014967 786.884388,508.021846 C790.425197,501.028725 790.150484,498.430501 791.218898,495.221574 C793.840172,487.348711 777.417489,485.661436 782.298206,480.305597 L783.00271,479.066778 L783.733385,477.746005 L787.489247,470.498798 L788.368227,468.713624 L789.273378,466.846498 L800.957353,440.899201 L802.303393,438.421856 C805.622984,437.260468 808.072987,437.561531 810.832549,438.00051 L812.930133,438.376863 Z" id="Path-12" stroke="#E78E8E" stroke-width="4" fill="#E56161"></path>
                            <path d="M565.162035,408.949972 C574.95178,412.366083 582.429534,415.772329 587.595298,419.16871 C592.761062,422.565091 599.916981,428.780179 609.063056,437.813972 C620.843864,415.715568 627.430003,400.662992 628.821472,392.656245 C631.967991,374.550651 619.511615,363.974229 614.352249,362.129816 C600.465454,357.165449 584.068716,372.772168 565.162035,408.949972 Z" id="Path-13" stroke="#E89595" stroke-width="4" fill="#E77F7F"></path>
                            <path d="M660.230557,509.694513 C660.813761,509.970884 661.388595,510.246484 661.955059,510.521312 L663.62934,511.343484 C671.875191,515.442778 678.23777,519.368563 682.717074,523.120841 L683.043565,523.39679 L683.711288,523.97573 C683.824213,524.075224 683.937956,524.176221 684.052519,524.278721 L684.74972,524.911747 C684.867559,525.020256 684.986215,525.130267 685.105691,525.241781 L685.832372,525.928893 C685.955123,526.046416 686.078694,526.165442 686.203083,526.28597 L686.959243,527.027168 L687.735056,527.804423 L688.530522,528.617735 L689.345641,529.467104 L690.180413,530.352531 L691.034837,531.274014 L691.908915,532.231556 L693.25688,533.735474 L694.18009,534.783159 L695.122953,535.8669 L696.085468,536.986699 L697.067636,538.142555 L698.069457,539.334468 L699.090931,540.562438 L700.132058,541.826466 L701.192838,543.126551 L702.273271,544.462693 L703.373356,545.834893 L704.866385,543.401503 L706.787555,540.240618 L709.077261,536.423924 L710.819622,533.4781 L712.074241,531.331457 L713.284157,529.23858 L714.065933,527.873198 L715.201346,525.86993 L716.292057,523.920426 L717.338066,522.024688 L718.339373,520.182715 L719.295978,518.394507 L720.20788,516.660064 L721.075081,514.979386 L721.62838,513.888804 L722.161812,512.822118 L722.924708,511.266892 L723.642902,509.765431 L724.316394,508.317736 L724.740554,507.382476 L725.144846,506.47111 L725.529271,505.583641 L725.893828,504.720067 L726.238518,503.880389 L726.56334,503.064607 L726.868295,502.27272 L727.288475,501.129694 L727.543761,500.397546 L727.779179,499.689294 C727.816759,499.573243 727.853512,499.458188 727.889437,499.344128 L728.095054,498.67172 L728.280803,498.023206 L728.446685,497.398589 C731.529964,485.285355 728.26386,475.75739 724.062308,469.594846 L723.646214,468.999575 C723.576426,468.902181 723.506434,468.805699 723.436263,468.710131 L723.013266,468.147729 C722.871675,467.963939 722.729555,467.783836 722.587097,467.607446 L722.158903,467.089447 C722.087432,467.00498 722.015924,466.921449 721.944403,466.838856 L721.515316,466.354592 C721.443839,466.275769 721.372397,466.19789 721.301014,466.120961 L720.873609,465.670804 L720.448758,465.243591 L720.027604,464.839487 C719.957784,464.774071 719.888165,464.709625 719.818772,464.646152 L719.405312,464.277021 L718.998413,463.931411 L718.599219,463.609487 L718.208875,463.311414 C718.144619,463.263732 718.080779,463.217051 718.017379,463.171374 L717.642457,462.909387 L717.279247,462.671665 L716.928894,462.458371 C716.871637,462.424867 716.814964,462.392388 716.758897,462.360937 L716.429977,462.184595 C716.376435,462.157271 716.323548,462.130981 716.27134,462.10573 C703.062294,455.716992 685.763873,469.350151 664.376076,503.005206 L663.005344,505.180592 C662.08782,506.648978 661.162891,508.153618 660.230557,509.694513 Z" id="Path-13-Copy" stroke="#E89595" stroke-width="4" fill="#E77F7F"></path>
                            <path d="M841.582066,582.099745 C843.352656,576.687758 846.056232,567.819793 849.692793,555.495848 C843.387214,549.910781 839.362901,548.678771 836.72317,547.691721 C831.702325,545.814324 826.334959,545.814324 822.608275,547.691721 C816.224476,550.907696 810.052361,565.234539 804.09193,590.672248 C803.940146,591.320026 804.341861,591.96831 804.989122,592.120215 C805.077959,592.141064 805.168876,592.151737 805.260122,592.152027 C816.666999,592.188344 819.740386,591.309091 824.356542,591.87622 C827.43398,592.254306 832.218075,593.716543 838.708828,596.262932 C839.413231,590.522623 840.370977,585.801561 841.582066,582.099745 Z" id="Path-14" stroke="#E89595" stroke-width="4" fill="#E77F7F"></path>
                            <path d="M62.8078806,362.310739 C67.2927434,357.330771 67.2927434,343.72103 62.8078806,321.481516 L56.1673556,300.386511 L44.6429594,273.192446 L0.0420325327,297.74221 L31.4324674,373.219331 C47.8645468,370.926904 58.3230178,367.290706 62.8078806,362.310739 Z" id="Path-15" stroke="#E89595" stroke-width="5" fill="#E77F7F"></path>
                            <line x1="664.28863" y1="379.647155" x2="682.238113" y2="407.427062" id="Path-5" stroke="#E89595" stroke-width="4"></line>
                            <path d="M600.904114,294.614868 C603.187006,285.033803 605.366875,278.219205 607.443721,274.171073 C609.520567,270.122941 612.5468,266.789946 616.52242,264.172088" id="Path-4" stroke="#E89595" stroke-width="4"></path>
                            <path d="M479.379377,861.291092 L474.418879,870.332644 C440.775891,935.608595 418.100518,985.391953 406.39276,1019.68272 C394.685001,1053.97348 387.71967,1091.00456 385.496767,1130.77594" id="Path-6" stroke="#E89595" stroke-width="5"></path>
                        </g>
                        <g id="noun_Idea_3705476" transform="translate(615.427639, 570.171983) rotate(-55.000000) translate(-615.427639, -570.171983) translate(542.427639, 481.119164)" fill="#E56161" fill-rule="nonzero">
                            <path d="M30.6310484,79.5579266 C29.9283511,93.7636818 34.9025303,107.276 44.6364378,117.605032 C51.3796334,124.759944 55.0905764,133.680802 55.0905764,142.722985 L55.0905764,144.975308 C55.0905764,146.931868 56.6758936,148.517985 58.6350838,148.517985 L106.027358,148.517985 C107.986548,148.517985 109.571866,146.931869 109.571866,144.975308 L109.571866,142.702225 C109.571866,133.450825 113.078608,124.752934 119.440917,118.215698 C128.891048,108.514588 134.093706,95.7186245 134.093706,82.1855463 C134.093706,67.9123885 128.402802,54.6198027 118.070051,44.7596229 C107.744313,34.9078012 94.2131428,29.8566561 79.8719156,30.505338 C53.5637946,31.7247843 31.9360956,53.2706739 30.6310484,79.5579266 Z M80.197233,37.5839506 C92.5722569,37.0166908 104.261848,41.3811388 113.175447,49.88518 C122.092554,58.3946133 127.004421,69.8670616 127.004421,82.1855463 C127.004421,93.8623588 122.514712,104.902353 114.359377,113.273476 C106.993061,120.843318 102.811405,130.800558 102.500114,141.432362 L62.1590898,141.432362 C61.8267586,131.0273 57.4651801,120.886725 49.7978231,112.747467 C41.3964779,103.833349 37.1042253,92.1721737 37.7133191,79.908959 C38.8384437,57.2269323 57.499708,38.6356997 80.197233,37.5839506 Z" id="Shape"></path>
                            <path d="M104.599812,159.65881 C104.599812,157.662751 102.99855,156.044615 101.019654,156.044615 L64.8426209,156.044615 C62.8637255,156.044615 61.2624627,157.662751 61.2624627,159.65881 C61.2624627,161.654868 62.8637251,163.273279 64.8426209,163.273279 L101.019654,163.273279 C102.99855,163.273279 104.599812,161.654868 104.599812,159.65881 Z" id="Path"></path>
                            <path d="M73.5329445,170.257349 C71.55149,170.257349 69.9478837,171.87576 69.9478837,173.871543 C69.9478837,175.867602 71.5514895,177.486013 73.5329445,177.486013 L91.6429434,177.486013 C93.6243979,177.486013 95.2280042,175.867602 95.2280042,173.871543 C95.2280042,171.87576 93.6243984,170.257349 91.6429434,170.257349 L73.5329445,170.257349 Z" id="Path"></path>
                            <path d="M85.3385838,19.8413651 L85.3385838,4.06986271 C85.3385838,2.10401213 83.7233891,0.510364318 81.7270007,0.510364318 C79.7308873,0.510364318 78.1156922,2.10401169 78.1156922,4.06986271 L78.1156922,19.8413651 C78.1156922,21.8072157 79.7308869,23.4011343 81.7270007,23.4011343 C83.7233891,23.4011343 85.3385838,21.8072162 85.3385838,19.8413651 Z" id="Path"></path>
                            <path d="M29.74182,24.2902662 C28.367599,22.9149521 26.1412171,22.9149521 24.7669961,24.2902662 C23.3927752,25.6655804 23.3927752,27.8937334 24.7669961,29.2690475 L35.7883378,40.2988884 C36.4753142,40.9866792 37.3753981,41.3304411 38.2754819,41.3304411 C39.1758333,41.3304411 40.0759171,40.9866796 40.7628936,40.2988884 C42.1371146,38.9235743 42.1371146,36.695689 40.7628936,35.3203753 L29.74182,24.2902662 Z" id="Path"></path>
                            <path d="M23.7936715,81.8936702 C23.7936715,79.8976118 22.2026691,78.2794755 20.2367872,78.2794755 L4.47806588,78.2794755 C2.51218443,78.2794755 0.92118156,79.8976113 0.92118156,81.8936702 C0.92118156,83.889729 2.51218399,85.5081397 4.47806588,85.5081397 L20.2367872,85.5081397 C22.2026691,85.5081397 23.7936715,83.8897286 23.7936715,81.8936702 Z" id="Path"></path>
                            <path d="M25.3725774,139.886397 C26.0598214,140.574127 26.9599053,140.917858 27.8599891,140.917858 C28.760073,140.917858 29.6601568,140.574127 30.3474009,139.886397 L41.3684748,128.855662 C42.7426958,127.48047 42.7426958,125.250908 41.3684748,123.877591 C39.9942538,122.5024 37.7681394,122.5024 36.3939188,123.877591 L25.3725769,134.908327 C23.9983564,136.283519 23.9983564,138.513081 25.3725774,139.886397 Z" id="Path"></path>
                            <path d="M139.284675,24.3752329 C137.910454,22.9999188 135.684072,22.9999188 134.309851,24.3752329 L123.288777,35.4053421 C121.914556,36.7806562 121.914556,39.0085415 123.288777,40.3838552 C123.975754,41.0716459 124.875838,41.4154078 125.776189,41.4154078 C126.676273,41.4154078 127.576357,41.0716463 128.263333,40.3838552 L139.284675,29.3540143 C140.658896,27.9787001 140.658896,25.7505471 139.284675,24.3752329 Z" id="Path"></path>
                            <path d="M145.437577,78.6734213 L142.174012,78.7534657 C141.44974,78.7534657 140.863581,80.3716015 140.863581,82.3676603 C140.863581,84.3637192 141.537903,85.3323962 141.58892,85.2242 C141.672754,85.0464082 141.829957,84.7682245 142.000378,84.3952765 C142.013829,84.3658399 142.024587,84.3212552 142.032653,84.2615224 C142.119694,84.1151834 142.946767,82.568508 143.695659,81.3381554 C144.354497,80.2557524 145.756963,78.6734213 145.437577,78.6734213 Z" id="Path"></path>
                            <path d="M128.868915,123.962558 C127.494694,122.587366 125.268579,122.587366 123.894359,123.962558 C122.520138,125.335874 122.520138,127.565437 123.894359,128.940628 L134.915432,139.971364 C135.602677,140.659093 136.50276,141.002825 137.402844,141.002825 C138.302928,141.002825 139.203012,140.659094 139.890256,139.971364 C141.264477,138.598048 141.264477,136.368485 139.890256,134.993294 L128.868915,123.962558 Z" id="Path"></path>
                        </g>
                        <path d="M241.735655,774.432541 C250.783481,763.437664 258.244748,755.929737 264.119456,751.90876 C269.994164,747.887784 277.45543,745.1819 286.503256,743.791108" id="Path-23" stroke="#E89595" stroke-width="4"></path>
                        <path d="M234.512764,764.794322 C243.560589,753.799445 251.021856,746.291518 256.896564,742.270542 C262.771272,738.249565 270.232539,735.543681 279.280365,734.152889" id="Path-23-Copy" stroke="#E89595" stroke-width="4"></path>
                        <path d="M579.916138,167.061454 C595.777128,169.086774 606.294018,171.248988 611.466806,173.548096 C616.639594,175.847204 624.983742,182.521964 636.499249,193.572378" id="Path-24" stroke="#E78E8E" stroke-width="4" transform="translate(608.207693, 180.316916) rotate(8.000000) translate(-608.207693, -180.316916) "></path>
                    </g>
                    <path d="M770.498922,341.035783 C772.636997,331.442208 776.403597,323.924819 781.79872,318.483618 C787.193843,313.042417 794.960999,308.726481 805.100188,305.535809" id="Path-17" stroke="#E89595" stroke-width="3"></path>
                    <path d="M785.187955,329.682042 C782.165533,328.242371 782.308661,324.536859 785.617341,318.565508 C786.397762,317.15704 790.612882,308.986769 792.189677,308.192392 C797.254899,305.640572 802.091872,312.812304 803.241062,311.804666 C805.535231,309.793079 811.499575,310.39802 821.134092,313.619488 C810.655691,323.550136 804.693734,330.996233 803.248222,335.95778 C799.736312,348.011994 799.287606,351.724798 797.15796,352.665284 C792.671657,354.646509 788.681656,346.985428 785.187955,329.682042 Z" id="Path-18" stroke="#E56161" fill="#E56161" transform="translate(802.078862, 330.305219) rotate(44.000000) translate(-802.078862, -330.305219) "></path>
                    <path d="M904.076376,437.924129 C907.097183,430.858506 910.026241,426.526911 912.863549,424.929343 C913.299896,424.683655 914.237827,423.555855 914.750986,423.282578 C916.669869,422.260701 922.664516,421.790456 932.734927,421.871844 L923.11156,467.408251 C916.213677,485.65824 910.861453,496.374988 907.054888,499.558495 C906.837252,499.740509 912.47588,502.447614 912.253648,502.59792 C909.892376,504.194956 904.082687,500.583164 894.922681,494.467001 C894.723797,494.334206 894.692579,494.232036 894.829027,494.160491 L904.076376,437.924129 Z" id="Path-21" stroke="#E56161" fill="#E56161"></path>
                </g>
                <line x1="911.33855" y1="422.296014" x2="894.495744" y2="439.9174" id="Path-20" stroke="#E78E8E" stroke-width="4"></line>
            </g>
        </g>
        <line x1="1818.5" y1="1220.5" x2="2143.5" y2="865.5" id="Line-3-Copy-5" stroke="#E89595" stroke-width="4" stroke-linecap="square"></line>
        <line x1="1828.5" y1="1232.5" x2="2153.5" y2="877.5" id="Line-3-Copy-4" stroke="#E89595" stroke-width="4" stroke-linecap="square"></line>
        <line x1="1836.5" y1="1249.5" x2="2161.5" y2="894.5" id="Line-3-Copy-3" stroke="#E89595" stroke-width="4" stroke-linecap="square"></line>
    </g>
</svg>